<?xml version="1.0" encoding="UTF-8"?>
<!DOCTYPE svg PUBLIC "-//W3C//DTD SVG 1.1//EN" "http://www.w3.org/Graphics/SVG/1.1/DTD/svg11.dtd">
<svg xmlns="http://www.w3.org/2000/svg" version="1.1" width="1200px" height="1200px" style="shape-rendering:geometricPrecision; text-rendering:geometricPrecision; image-rendering:optimizeQuality; fill-rule:evenodd; clip-rule:evenodd" xmlns:xlink="http://www.w3.org/1999/xlink">
<g><path style="opacity:0.999" fill="#c7716b" d="M 881.5,1037.5 C 860.167,1037.5 838.833,1037.5 817.5,1037.5C 817.5,1016.17 817.5,994.833 817.5,973.5C 838.833,973.5 860.167,973.5 881.5,973.5C 881.5,952.167 881.5,930.833 881.5,909.5C 902.833,909.5 924.167,909.5 945.5,909.5C 945.5,888.167 945.5,866.833 945.5,845.5C 945.5,824.167 945.5,802.833 945.5,781.5C 945.5,738.833 945.5,696.167 945.5,653.5C 945.5,610.833 945.5,568.167 945.5,525.5C 924.167,525.5 902.833,525.5 881.5,525.5C 881.5,504.167 881.5,482.833 881.5,461.5C 860.167,461.5 838.833,461.5 817.5,461.5C 817.5,440.167 817.5,418.833 817.5,397.5C 796.167,397.5 774.833,397.5 753.5,397.5C 753.5,376.167 753.5,354.833 753.5,333.5C 732.167,333.5 710.833,333.5 689.5,333.5C 689.5,376.167 689.5,418.833 689.5,461.5C 668.167,461.5 646.833,461.5 625.5,461.5C 625.5,482.833 625.5,504.167 625.5,525.5C 604.167,525.5 582.833,525.5 561.5,525.5C 561.5,546.833 561.5,568.167 561.5,589.5C 540.167,589.5 518.833,589.5 497.5,589.5C 497.5,568.167 497.5,546.833 497.5,525.5C 497.5,504.167 497.5,482.833 497.5,461.5C 476.167,461.5 454.833,461.5 433.5,461.5C 433.5,482.833 433.5,504.167 433.5,525.5C 390.833,525.5 348.167,525.5 305.5,525.5C 305.5,546.833 305.5,568.167 305.5,589.5C 284.167,589.5 262.833,589.5 241.5,589.5C 241.5,610.833 241.5,632.167 241.5,653.5C 241.5,738.833 241.5,824.167 241.5,909.5C 262.833,909.5 284.167,909.5 305.5,909.5C 305.5,930.833 305.5,952.167 305.5,973.5C 284.167,973.5 262.833,973.5 241.5,973.5C 241.5,994.833 241.5,1016.17 241.5,1037.5C 220.167,1037.5 198.833,1037.5 177.5,1037.5C 177.5,1016.17 177.5,994.833 177.5,973.5C 156.167,973.5 134.833,973.5 113.5,973.5C 113.5,952.167 113.5,930.833 113.5,909.5C 92.1667,909.5 70.8333,909.5 49.5,909.5C 49.5,824.167 49.5,738.833 49.5,653.5C 70.8333,653.5 92.1667,653.5 113.5,653.5C 113.5,546.833 113.5,440.167 113.5,333.5C 134.833,333.5 156.167,333.5 177.5,333.5C 177.5,290.833 177.5,248.167 177.5,205.5C 198.833,205.5 220.167,205.5 241.5,205.5C 241.5,184.167 241.5,162.833 241.5,141.5C 284.167,141.5 326.833,141.5 369.5,141.5C 369.5,120.167 369.5,98.8333 369.5,77.5C 518.833,77.5 668.167,77.5 817.5,77.5C 817.5,98.8333 817.5,120.167 817.5,141.5C 860.167,141.5 902.833,141.5 945.5,141.5C 945.5,162.833 945.5,184.167 945.5,205.5C 966.833,205.5 988.167,205.5 1009.5,205.5C 1009.5,248.167 1009.5,290.833 1009.5,333.5C 1030.83,333.5 1052.17,333.5 1073.5,333.5C 1073.5,440.167 1073.5,546.833 1073.5,653.5C 1094.83,653.5 1116.17,653.5 1137.5,653.5C 1137.5,738.833 1137.5,824.167 1137.5,909.5C 1116.17,909.5 1094.83,909.5 1073.5,909.5C 1073.5,930.833 1073.5,952.167 1073.5,973.5C 1052.17,973.5 1030.83,973.5 1009.5,973.5C 1009.5,994.833 1009.5,1016.17 1009.5,1037.5C 966.833,1037.5 924.167,1037.5 881.5,1037.5 Z"/></g>
<g><path style="opacity:1" fill="#f9ecdd" d="M 881.5,525.5 C 838.833,525.5 796.167,525.5 753.5,525.5C 753.5,546.833 753.5,568.167 753.5,589.5C 753.5,610.833 753.5,632.167 753.5,653.5C 753.5,696.167 753.5,738.833 753.5,781.5C 753.5,802.833 753.5,824.167 753.5,845.5C 817.5,845.5 881.5,845.5 945.5,845.5C 945.5,866.833 945.5,888.167 945.5,909.5C 924.167,909.5 902.833,909.5 881.5,909.5C 881.5,930.833 881.5,952.167 881.5,973.5C 860.167,973.5 838.833,973.5 817.5,973.5C 774.833,973.5 732.167,973.5 689.5,973.5C 625.5,973.5 561.5,973.5 497.5,973.5C 454.833,973.5 412.167,973.5 369.5,973.5C 348.167,973.5 326.833,973.5 305.5,973.5C 305.5,952.167 305.5,930.833 305.5,909.5C 284.167,909.5 262.833,909.5 241.5,909.5C 241.5,824.167 241.5,738.833 241.5,653.5C 262.833,653.5 284.167,653.5 305.5,653.5C 305.5,696.167 305.5,738.833 305.5,781.5C 305.5,802.833 305.5,824.167 305.5,845.5C 369.5,845.5 433.5,845.5 497.5,845.5C 497.5,824.167 497.5,802.833 497.5,781.5C 476.167,781.5 454.833,781.5 433.5,781.5C 433.5,717.5 433.5,653.5 433.5,589.5C 454.833,589.5 476.167,589.5 497.5,589.5C 518.833,589.5 540.167,589.5 561.5,589.5C 561.5,568.167 561.5,546.833 561.5,525.5C 582.833,525.5 604.167,525.5 625.5,525.5C 625.5,504.167 625.5,482.833 625.5,461.5C 646.833,461.5 668.167,461.5 689.5,461.5C 689.5,418.833 689.5,376.167 689.5,333.5C 710.833,333.5 732.167,333.5 753.5,333.5C 753.5,354.833 753.5,376.167 753.5,397.5C 774.833,397.5 796.167,397.5 817.5,397.5C 817.5,418.833 817.5,440.167 817.5,461.5C 838.833,461.5 860.167,461.5 881.5,461.5C 881.5,482.833 881.5,504.167 881.5,525.5 Z"/></g>
<g><path style="opacity:1" fill="#f9ecdd" d="M 497.5,461.5 C 497.5,440.167 497.5,418.833 497.5,397.5C 518.833,397.5 540.167,397.5 561.5,397.5C 561.5,418.833 561.5,440.167 561.5,461.5C 540.167,461.5 518.833,461.5 497.5,461.5 Z"/></g>
<g><path style="opacity:1" fill="#f9ecdd" d="M 497.5,461.5 C 497.5,482.833 497.5,504.167 497.5,525.5C 476.167,525.5 454.833,525.5 433.5,525.5C 433.5,504.167 433.5,482.833 433.5,461.5C 454.833,461.5 476.167,461.5 497.5,461.5 Z"/></g>
<g><path style="opacity:1" fill="#000000" d="M 433.5,525.5 C 454.833,525.5 476.167,525.5 497.5,525.5C 497.5,546.833 497.5,568.167 497.5,589.5C 476.167,589.5 454.833,589.5 433.5,589.5C 412.167,589.5 390.833,589.5 369.5,589.5C 348.167,589.5 326.833,589.5 305.5,589.5C 305.5,568.167 305.5,546.833 305.5,525.5C 348.167,525.5 390.833,525.5 433.5,525.5 Z"/></g>
<g><path style="opacity:1" fill="#000000" d="M 881.5,525.5 C 902.833,525.5 924.167,525.5 945.5,525.5C 945.5,568.167 945.5,610.833 945.5,653.5C 924.167,653.5 902.833,653.5 881.5,653.5C 881.5,632.167 881.5,610.833 881.5,589.5C 860.167,589.5 838.833,589.5 817.5,589.5C 796.167,589.5 774.833,589.5 753.5,589.5C 753.5,568.167 753.5,546.833 753.5,525.5C 796.167,525.5 838.833,525.5 881.5,525.5 Z"/></g>
<g><path style="opacity:1" fill="#000000" d="M 305.5,589.5 C 305.5,610.833 305.5,632.167 305.5,653.5C 284.167,653.5 262.833,653.5 241.5,653.5C 241.5,632.167 241.5,610.833 241.5,589.5C 262.833,589.5 284.167,589.5 305.5,589.5 Z"/></g>
<g><path style="opacity:1" fill="#fbfcfa" d="M 305.5,589.5 C 326.833,589.5 348.167,589.5 369.5,589.5C 369.5,610.833 369.5,632.167 369.5,653.5C 348.167,653.5 326.833,653.5 305.5,653.5C 305.5,632.167 305.5,610.833 305.5,589.5 Z"/></g>
<g><path style="opacity:1" fill="#aa80dd" d="M 369.5,589.5 C 390.833,589.5 412.167,589.5 433.5,589.5C 433.5,653.5 433.5,717.5 433.5,781.5C 390.833,781.5 348.167,781.5 305.5,781.5C 305.5,738.833 305.5,696.167 305.5,653.5C 326.833,653.5 348.167,653.5 369.5,653.5C 369.5,632.167 369.5,610.833 369.5,589.5 Z"/></g>
<g><path style="opacity:1" fill="#fbfcfa" d="M 753.5,589.5 C 774.833,589.5 796.167,589.5 817.5,589.5C 817.5,610.833 817.5,632.167 817.5,653.5C 796.167,653.5 774.833,653.5 753.5,653.5C 753.5,632.167 753.5,610.833 753.5,589.5 Z"/></g>
<g><path style="opacity:1" fill="#aa80dd" d="M 817.5,589.5 C 838.833,589.5 860.167,589.5 881.5,589.5C 881.5,610.833 881.5,632.167 881.5,653.5C 881.5,696.167 881.5,738.833 881.5,781.5C 838.833,781.5 796.167,781.5 753.5,781.5C 753.5,738.833 753.5,696.167 753.5,653.5C 774.833,653.5 796.167,653.5 817.5,653.5C 817.5,632.167 817.5,610.833 817.5,589.5 Z"/></g>
<g><path style="opacity:1" fill="#f9ecdd" d="M 881.5,653.5 C 902.833,653.5 924.167,653.5 945.5,653.5C 945.5,696.167 945.5,738.833 945.5,781.5C 924.167,781.5 902.833,781.5 881.5,781.5C 881.5,738.833 881.5,696.167 881.5,653.5 Z"/></g>
<g><path style="opacity:1" fill="#f7dacc" d="M 305.5,781.5 C 348.167,781.5 390.833,781.5 433.5,781.5C 454.833,781.5 476.167,781.5 497.5,781.5C 497.5,802.833 497.5,824.167 497.5,845.5C 433.5,845.5 369.5,845.5 305.5,845.5C 305.5,824.167 305.5,802.833 305.5,781.5 Z"/></g>
<g><path style="opacity:1" fill="#f7dacc" d="M 753.5,781.5 C 796.167,781.5 838.833,781.5 881.5,781.5C 902.833,781.5 924.167,781.5 945.5,781.5C 945.5,802.833 945.5,824.167 945.5,845.5C 881.5,845.5 817.5,845.5 753.5,845.5C 753.5,824.167 753.5,802.833 753.5,781.5 Z"/></g>
<g><path style="opacity:1" fill="#f5e4ca" d="M 305.5,973.5 C 305.5,994.833 305.5,1016.17 305.5,1037.5C 284.167,1037.5 262.833,1037.5 241.5,1037.5C 241.5,1016.17 241.5,994.833 241.5,973.5C 262.833,973.5 284.167,973.5 305.5,973.5 Z"/></g>
<g><path style="opacity:1" fill="#c7716b" d="M 305.5,973.5 C 326.833,973.5 348.167,973.5 369.5,973.5C 369.5,994.833 369.5,1016.17 369.5,1037.5C 348.167,1037.5 326.833,1037.5 305.5,1037.5C 305.5,1016.17 305.5,994.833 305.5,973.5 Z"/></g>
<g><path style="opacity:0.994" fill="#2b3468" d="M 369.5,973.5 C 412.167,973.5 454.833,973.5 497.5,973.5C 497.5,1016.17 497.5,1058.83 497.5,1101.5C 518.833,1101.5 540.167,1101.5 561.5,1101.5C 582.833,1101.5 604.167,1101.5 625.5,1101.5C 646.833,1101.5 668.167,1101.5 689.5,1101.5C 689.5,1058.83 689.5,1016.17 689.5,973.5C 732.167,973.5 774.833,973.5 817.5,973.5C 817.5,994.833 817.5,1016.17 817.5,1037.5C 838.833,1037.5 860.167,1037.5 881.5,1037.5C 881.5,1058.83 881.5,1080.17 881.5,1101.5C 902.833,1101.5 924.167,1101.5 945.5,1101.5C 945.5,1122.83 945.5,1144.17 945.5,1165.5C 710.833,1165.5 476.167,1165.5 241.5,1165.5C 241.5,1122.83 241.5,1080.17 241.5,1037.5C 262.833,1037.5 284.167,1037.5 305.5,1037.5C 326.833,1037.5 348.167,1037.5 369.5,1037.5C 369.5,1016.17 369.5,994.833 369.5,973.5 Z"/></g>
<g><path style="opacity:1" fill="#76b6de" d="M 497.5,973.5 C 561.5,973.5 625.5,973.5 689.5,973.5C 689.5,1016.17 689.5,1058.83 689.5,1101.5C 668.167,1101.5 646.833,1101.5 625.5,1101.5C 625.5,1080.17 625.5,1058.83 625.5,1037.5C 604.167,1037.5 582.833,1037.5 561.5,1037.5C 561.5,1058.83 561.5,1080.17 561.5,1101.5C 540.167,1101.5 518.833,1101.5 497.5,1101.5C 497.5,1058.83 497.5,1016.17 497.5,973.5 Z"/></g>
<g><path style="opacity:1" fill="#f4f5f7" d="M 625.5,1101.5 C 604.167,1101.5 582.833,1101.5 561.5,1101.5C 561.5,1080.17 561.5,1058.83 561.5,1037.5C 582.833,1037.5 604.167,1037.5 625.5,1037.5C 625.5,1058.83 625.5,1080.17 625.5,1101.5 Z"/></g>
</svg>
